<svg width="58" height="58" viewBox="0 0 58 58" fill="none" xmlns="http://www.w3.org/2000/svg">
<path fill-rule="evenodd" clip-rule="evenodd" d="M50.75 44.75V27.5213C50.7498 29.3374 50.7391 30.2561 50.1642 30.8309C49.5784 31.4167 48.6356 31.4167 46.75 31.4167H40.1082C39.4125 31.4167 39.0646 31.4167 38.8027 31.6054C38.5408 31.7942 38.4308 32.1242 38.2109 32.7841L38.2108 32.7842L38.2108 32.7842L36.7059 37.2991C36.4858 37.9592 36.3758 38.2892 36.114 38.4779C35.8521 38.6667 35.5042 38.6667 34.8085 38.6667H23.1915C22.4958 38.6667 22.1479 38.6667 21.886 38.4779C21.6242 38.2892 21.5142 37.9592 21.2942 37.2992L21.2942 37.2991L19.7892 32.7842C19.5692 32.1242 19.4592 31.7942 19.1973 31.6054C18.9354 31.4167 18.5875 31.4167 17.8918 31.4167H11.25C9.36438 31.4167 8.42157 31.4167 7.83579 30.8309C7.25 30.2451 7.25 29.3023 7.25 27.4167V44.75C7.25 47.5785 7.25 48.9927 8.12868 49.8713C9.00736 50.75 10.4216 50.75 13.25 50.75H44.75C47.5784 50.75 48.9926 50.75 49.8713 49.8713C50.75 48.9927 50.75 47.5785 50.75 44.75Z" fill="#313131"/>
<path d="M7.25 11.25C7.25 9.36438 7.25 8.42157 7.83579 7.83579C8.42157 7.25 9.36438 7.25 11.25 7.25H46.75C48.6356 7.25 49.5784 7.25 50.1642 7.83579C50.75 8.42157 50.75 9.36438 50.75 11.25V46.75C50.75 48.6356 50.75 49.5784 50.1642 50.1642C49.5784 50.75 48.6356 50.75 46.75 50.75H11.25C9.36438 50.75 8.42157 50.75 7.83579 50.1642C7.25 49.5784 7.25 48.6356 7.25 46.75V11.25Z" stroke="#313131" stroke-width="4"/>
</svg>
