<svg width="260" height="43" viewBox="0 0 260 43" fill="none" xmlns="http://www.w3.org/2000/svg">
<rect width="260" height="43" fill="white"/>
<path d="M74.56 19.4C74.3067 18.9333 73.94 18.58 73.46 18.34C72.9933 18.0867 72.44 17.96 71.8 17.96C70.6933 17.96 69.8067 18.3267 69.14 19.06C68.4733 19.78 68.14 20.7467 68.14 21.96C68.14 23.2533 68.4867 24.2667 69.18 25C69.8867 25.72 70.8533 26.08 72.08 26.08C72.92 26.08 73.6267 25.8667 74.2 25.44C74.7867 25.0133 75.2133 24.4 75.48 23.6H71.14V21.08H78.58V24.26C78.3267 25.1133 77.8933 25.9067 77.28 26.64C76.68 27.3733 75.9133 27.9667 74.98 28.42C74.0467 28.8733 72.9933 29.1 71.82 29.1C70.4333 29.1 69.1933 28.8 68.1 28.2C67.02 27.5867 66.1733 26.74 65.56 25.66C64.96 24.58 64.66 23.3467 64.66 21.96C64.66 20.5733 64.96 19.34 65.56 18.26C66.1733 17.1667 67.02 16.32 68.1 15.72C69.18 15.1067 70.4133 14.8 71.8 14.8C73.48 14.8 74.8933 15.2067 76.04 16.02C77.2 16.8333 77.9667 17.96 78.34 19.4H74.56ZM85.5544 29.16C84.461 29.16 83.4744 28.9267 82.5944 28.46C81.7277 27.9933 81.041 27.3267 80.5344 26.46C80.041 25.5933 79.7944 24.58 79.7944 23.42C79.7944 22.2733 80.0477 21.2667 80.5544 20.4C81.061 19.52 81.7544 18.8467 82.6344 18.38C83.5144 17.9133 84.501 17.68 85.5944 17.68C86.6877 17.68 87.6744 17.9133 88.5544 18.38C89.4344 18.8467 90.1277 19.52 90.6344 20.4C91.141 21.2667 91.3944 22.2733 91.3944 23.42C91.3944 24.5667 91.1344 25.58 90.6144 26.46C90.1077 27.3267 89.4077 27.9933 88.5144 28.46C87.6344 28.9267 86.6477 29.16 85.5544 29.16ZM85.5544 26.2C86.2077 26.2 86.761 25.96 87.2144 25.48C87.681 25 87.9144 24.3133 87.9144 23.42C87.9144 22.5267 87.6877 21.84 87.2344 21.36C86.7944 20.88 86.2477 20.64 85.5944 20.64C84.9277 20.64 84.3744 20.88 83.9344 21.36C83.4944 21.8267 83.2744 22.5133 83.2744 23.42C83.2744 24.3133 83.4877 25 83.9144 25.48C84.3544 25.96 84.901 26.2 85.5544 26.2ZM100.867 19.42C101.187 18.9 101.647 18.48 102.247 18.16C102.847 17.84 103.534 17.68 104.307 17.68C105.227 17.68 106.06 17.9133 106.807 18.38C107.554 18.8467 108.14 19.5133 108.567 20.38C109.007 21.2467 109.227 22.2533 109.227 23.4C109.227 24.5467 109.007 25.56 108.567 26.44C108.14 27.3067 107.554 27.98 106.807 28.46C106.06 28.9267 105.227 29.16 104.307 29.16C103.52 29.16 102.834 29.0067 102.247 28.7C101.66 28.38 101.2 27.96 100.867 27.44V29H97.447V14.2H100.867V19.42ZM105.747 23.4C105.747 22.5467 105.507 21.88 105.027 21.4C104.56 20.9067 103.98 20.66 103.287 20.66C102.607 20.66 102.027 20.9067 101.547 21.4C101.08 21.8933 100.847 22.5667 100.847 23.42C100.847 24.2733 101.08 24.9467 101.547 25.44C102.027 25.9333 102.607 26.18 103.287 26.18C103.967 26.18 104.547 25.9333 105.027 25.44C105.507 24.9333 105.747 24.2533 105.747 23.4ZM110.341 23.4C110.341 22.2533 110.555 21.2467 110.981 20.38C111.421 19.5133 112.015 18.8467 112.761 18.38C113.508 17.9133 114.341 17.68 115.261 17.68C116.048 17.68 116.735 17.84 117.321 18.16C117.921 18.48 118.381 18.9 118.701 19.42V17.84H122.121V29H118.701V27.42C118.368 27.94 117.901 28.36 117.301 28.68C116.715 29 116.028 29.16 115.241 29.16C114.335 29.16 113.508 28.9267 112.761 28.46C112.015 27.98 111.421 27.3067 110.981 26.44C110.555 25.56 110.341 24.5467 110.341 23.4ZM118.701 23.42C118.701 22.5667 118.461 21.8933 117.981 21.4C117.515 20.9067 116.941 20.66 116.261 20.66C115.581 20.66 115.001 20.9067 114.521 21.4C114.055 21.88 113.821 22.5467 113.821 23.4C113.821 24.2533 114.055 24.9333 114.521 25.44C115.001 25.9333 115.581 26.18 116.261 26.18C116.941 26.18 117.515 25.9333 117.981 25.44C118.461 24.9467 118.701 24.2733 118.701 23.42ZM123.915 23.42C123.915 22.26 124.149 21.2467 124.615 20.38C125.095 19.5133 125.755 18.8467 126.595 18.38C127.449 17.9133 128.422 17.68 129.515 17.68C130.915 17.68 132.082 18.0467 133.015 18.78C133.962 19.5133 134.582 20.5467 134.875 21.88H131.235C130.929 21.0267 130.335 20.6 129.455 20.6C128.829 20.6 128.329 20.8467 127.955 21.34C127.582 21.82 127.395 22.5133 127.395 23.42C127.395 24.3267 127.582 25.0267 127.955 25.52C128.329 26 128.829 26.24 129.455 26.24C130.335 26.24 130.929 25.8133 131.235 24.96H134.875C134.582 26.2667 133.962 27.2933 133.015 28.04C132.069 28.7867 130.902 29.16 129.515 29.16C128.422 29.16 127.449 28.9267 126.595 28.46C125.755 27.9933 125.095 27.3267 124.615 26.46C124.149 25.5933 123.915 24.58 123.915 23.42ZM143.525 29L140.125 24.32V29H136.705V14.2H140.125V22.38L143.505 17.84H147.725L143.085 23.44L147.765 29H143.525ZM159.526 26.1V29H157.786C156.546 29 155.58 28.7 154.886 28.1C154.193 27.4867 153.846 26.4933 153.846 25.12V20.68H152.486V17.84H153.846V15.12H157.266V17.84H159.506V20.68H157.266V25.16C157.266 25.4933 157.346 25.7333 157.506 25.88C157.666 26.0267 157.933 26.1 158.306 26.1H159.526ZM166.511 29.16C165.418 29.16 164.431 28.9267 163.551 28.46C162.685 27.9933 161.998 27.3267 161.491 26.46C160.998 25.5933 160.751 24.58 160.751 23.42C160.751 22.2733 161.005 21.2667 161.511 20.4C162.018 19.52 162.711 18.8467 163.591 18.38C164.471 17.9133 165.458 17.68 166.551 17.68C167.645 17.68 168.631 17.9133 169.511 18.38C170.391 18.8467 171.085 19.52 171.591 20.4C172.098 21.2667 172.351 22.2733 172.351 23.42C172.351 24.5667 172.091 25.58 171.571 26.46C171.065 27.3267 170.365 27.9933 169.471 28.46C168.591 28.9267 167.605 29.16 166.511 29.16ZM166.511 26.2C167.165 26.2 167.718 25.96 168.171 25.48C168.638 25 168.871 24.3133 168.871 23.42C168.871 22.5267 168.645 21.84 168.191 21.36C167.751 20.88 167.205 20.64 166.551 20.64C165.885 20.64 165.331 20.88 164.891 21.36C164.451 21.8267 164.231 22.5133 164.231 23.42C164.231 24.3133 164.445 25 164.871 25.48C165.311 25.96 165.858 26.2 166.511 26.2ZM190.564 14.96V29H187.144V23.22H181.824V29H178.404V14.96H181.824V20.46H187.144V14.96H190.564ZM198.113 29.16C197.02 29.16 196.033 28.9267 195.153 28.46C194.286 27.9933 193.6 27.3267 193.093 26.46C192.6 25.5933 192.353 24.58 192.353 23.42C192.353 22.2733 192.606 21.2667 193.113 20.4C193.62 19.52 194.313 18.8467 195.193 18.38C196.073 17.9133 197.06 17.68 198.153 17.68C199.246 17.68 200.233 17.9133 201.113 18.38C201.993 18.8467 202.686 19.52 203.193 20.4C203.7 21.2667 203.953 22.2733 203.953 23.42C203.953 24.5667 203.693 25.58 203.173 26.46C202.666 27.3267 201.966 27.9933 201.073 28.46C200.193 28.9267 199.206 29.16 198.113 29.16ZM198.113 26.2C198.766 26.2 199.32 25.96 199.773 25.48C200.24 25 200.473 24.3133 200.473 23.42C200.473 22.5267 200.246 21.84 199.793 21.36C199.353 20.88 198.806 20.64 198.153 20.64C197.486 20.64 196.933 20.88 196.493 21.36C196.053 21.8267 195.833 22.5133 195.833 23.42C195.833 24.3133 196.046 25 196.473 25.48C196.913 25.96 197.46 26.2 198.113 26.2ZM220.007 17.72C221.394 17.72 222.494 18.14 223.307 18.98C224.134 19.82 224.547 20.9867 224.547 22.48V29H221.147V22.94C221.147 22.22 220.954 21.6667 220.567 21.28C220.194 20.88 219.674 20.68 219.007 20.68C218.341 20.68 217.814 20.88 217.427 21.28C217.054 21.6667 216.867 22.22 216.867 22.94V29H213.467V22.94C213.467 22.22 213.274 21.6667 212.887 21.28C212.514 20.88 211.994 20.68 211.327 20.68C210.661 20.68 210.134 20.88 209.747 21.28C209.374 21.6667 209.187 22.22 209.187 22.94V29H205.767V17.84H209.187V19.24C209.534 18.7733 209.987 18.4067 210.547 18.14C211.107 17.86 211.741 17.72 212.447 17.72C213.287 17.72 214.034 17.9 214.687 18.26C215.354 18.62 215.874 19.1333 216.247 19.8C216.634 19.1867 217.161 18.6867 217.827 18.3C218.494 17.9133 219.221 17.72 220.007 17.72ZM237.459 23.24C237.459 23.56 237.439 23.8933 237.399 24.24H229.659C229.713 24.9333 229.933 25.4667 230.319 25.84C230.719 26.2 231.206 26.38 231.779 26.38C232.633 26.38 233.226 26.02 233.559 25.3H237.199C237.013 26.0333 236.673 26.6933 236.179 27.28C235.699 27.8667 235.093 28.3267 234.359 28.66C233.626 28.9933 232.806 29.16 231.899 29.16C230.806 29.16 229.833 28.9267 228.979 28.46C228.126 27.9933 227.459 27.3267 226.979 26.46C226.499 25.5933 226.259 24.58 226.259 23.42C226.259 22.26 226.493 21.2467 226.959 20.38C227.439 19.5133 228.106 18.8467 228.959 18.38C229.813 17.9133 230.793 17.68 231.899 17.68C232.979 17.68 233.939 17.9067 234.779 18.36C235.619 18.8133 236.273 19.46 236.739 20.3C237.219 21.14 237.459 22.12 237.459 23.24ZM233.959 22.34C233.959 21.7533 233.759 21.2867 233.359 20.94C232.959 20.5933 232.459 20.42 231.859 20.42C231.286 20.42 230.799 20.5867 230.399 20.92C230.013 21.2533 229.773 21.7267 229.679 22.34H233.959Z" fill="black"/>
<path d="M33 22L32.2929 21.2929L31.5858 22L32.2929 22.7071L33 22ZM48 23C48.5523 23 49 22.5523 49 22C49 21.4477 48.5523 21 48 21V23ZM38.2929 15.2929L32.2929 21.2929L33.7071 22.7071L39.7071 16.7071L38.2929 15.2929ZM32.2929 22.7071L38.2929 28.7071L39.7071 27.2929L33.7071 21.2929L32.2929 22.7071ZM33 23H48V21H33V23Z" fill="#33363F"/>
</svg>
