<svg width="636" height="91" viewBox="0 0 636 91" fill="none" xmlns="http://www.w3.org/2000/svg">
<path d="M89.52 78V22H112.56C117.52 22 121.76 22.8 125.28 24.4C128.853 26 131.6 28.2933 133.52 31.28C135.44 34.2667 136.4 37.8133 136.4 41.92C136.4 46.0267 135.44 49.5733 133.52 52.56C131.6 55.4933 128.853 57.76 125.28 59.36C121.76 60.9067 117.52 61.68 112.56 61.68H95.28L99.92 56.96V78H89.52ZM126.16 78L112 57.68H123.12L137.36 78H126.16ZM99.92 58.08L95.28 53.12H112.08C116.667 53.12 120.107 52.1333 122.4 50.16C124.747 48.1867 125.92 45.44 125.92 41.92C125.92 38.3467 124.747 35.6 122.4 33.68C120.107 31.76 116.667 30.8 112.08 30.8H95.28L99.92 25.68V58.08ZM174.276 78.8C169.902 78.8 165.876 78.08 162.196 76.64C158.516 75.2 155.316 73.2 152.596 70.64C149.876 68.0267 147.769 64.9867 146.276 61.52C144.782 58 144.036 54.16 144.036 50C144.036 45.84 144.782 42.0267 146.276 38.56C147.769 35.04 149.876 32 152.596 29.44C155.316 26.8267 158.516 24.8 162.196 23.36C165.876 21.92 169.876 21.2 174.196 21.2C178.569 21.2 182.569 21.92 186.196 23.36C189.876 24.8 193.076 26.8267 195.796 29.44C198.516 32 200.622 35.04 202.116 38.56C203.609 42.0267 204.356 45.84 204.356 50C204.356 54.16 203.609 58 202.116 61.52C200.622 65.04 198.516 68.08 195.796 70.64C193.076 73.2 189.876 75.2 186.196 76.64C182.569 78.08 178.596 78.8 174.276 78.8ZM174.196 69.68C177.022 69.68 179.636 69.2 182.036 68.24C184.436 67.28 186.516 65.92 188.276 64.16C190.036 62.3467 191.396 60.2667 192.356 57.92C193.369 55.52 193.876 52.88 193.876 50C193.876 47.12 193.369 44.5067 192.356 42.16C191.396 39.76 190.036 37.68 188.276 35.92C186.516 34.1067 184.436 32.72 182.036 31.76C179.636 30.8 177.022 30.32 174.196 30.32C171.369 30.32 168.756 30.8 166.356 31.76C164.009 32.72 161.929 34.1067 160.116 35.92C158.356 37.68 156.969 39.76 155.956 42.16C154.996 44.5067 154.516 47.12 154.516 50C154.516 52.8267 154.996 55.44 155.956 57.84C156.969 60.24 158.356 62.3467 160.116 64.16C161.876 65.92 163.956 67.28 166.356 68.24C168.756 69.2 171.369 69.68 174.196 69.68ZM226.861 78L208.301 22H219.101L235.661 72.64H230.301L247.501 22H257.101L273.821 72.64H268.621L285.581 22H295.501L276.941 78H265.901L250.621 32.32H253.501L237.981 78H226.861ZM303.973 78V22H314.373V69.2H343.653V78H303.973ZM361.464 45.28H389.304V53.84H361.464V45.28ZM362.264 69.28H393.864V78H351.864V22H392.744V30.72H362.264V69.28ZM422.818 78.8C418.444 78.8 414.258 78.1867 410.258 76.96C406.258 75.68 403.084 74.0533 400.738 72.08L404.338 64C406.578 65.76 409.351 67.2267 412.658 68.4C415.964 69.5733 419.351 70.16 422.818 70.16C425.751 70.16 428.124 69.84 429.938 69.2C431.751 68.56 433.084 67.7067 433.938 66.64C434.791 65.52 435.218 64.2667 435.218 62.88C435.218 61.1733 434.604 59.8133 433.378 58.8C432.151 57.7333 430.551 56.9067 428.578 56.32C426.658 55.68 424.498 55.0933 422.098 54.56C419.751 54.0267 417.378 53.4133 414.978 52.72C412.631 51.9733 410.471 51.04 408.497 49.92C406.578 48.7467 405.004 47.2 403.778 45.28C402.551 43.36 401.938 40.9067 401.938 37.92C401.938 34.88 402.738 32.1067 404.338 29.6C405.991 27.04 408.471 25.0133 411.778 23.52C415.138 21.9733 419.378 21.2 424.498 21.2C427.858 21.2 431.191 21.6267 434.498 22.48C437.804 23.3333 440.684 24.56 443.137 26.16L439.858 34.24C437.351 32.7467 434.764 31.6533 432.098 30.96C429.431 30.2133 426.871 29.84 424.418 29.84C421.538 29.84 419.191 30.1867 417.378 30.88C415.618 31.5733 414.311 32.48 413.458 33.6C412.658 34.72 412.258 36 412.258 37.44C412.258 39.1467 412.844 40.5333 414.018 41.6C415.244 42.6133 416.818 43.4133 418.738 44C420.711 44.5867 422.898 45.1733 425.298 45.76C427.698 46.2933 430.071 46.9067 432.418 47.6C434.818 48.2933 436.978 49.2 438.898 50.32C440.871 51.44 442.444 52.96 443.618 54.88C444.844 56.8 445.458 59.2267 445.458 62.16C445.458 65.1467 444.631 67.92 442.978 70.48C441.378 72.9867 438.898 75.0133 435.538 76.56C432.178 78.0533 427.938 78.8 422.818 78.8ZM482.01 78.8C477.637 78.8 473.61 78.08 469.93 76.64C466.25 75.2 463.05 73.2 460.33 70.64C457.61 68.0267 455.503 64.9867 454.01 61.52C452.517 58 451.77 54.16 451.77 50C451.77 45.84 452.517 42.0267 454.01 38.56C455.503 35.04 457.61 32 460.33 29.44C463.05 26.8267 466.25 24.8 469.93 23.36C473.61 21.92 477.61 21.2 481.93 21.2C486.303 21.2 490.303 21.92 493.93 23.36C497.61 24.8 500.81 26.8 503.53 29.36C506.25 31.92 508.357 34.96 509.85 38.48C511.343 42 512.09 45.84 512.09 50C512.09 54.16 511.343 58 509.85 61.52C508.357 65.04 506.25 68.08 503.53 70.64C500.81 73.2 497.61 75.2 493.93 76.64C490.303 78.08 486.33 78.8 482.01 78.8ZM500.25 90.24C498.277 90.24 496.357 90 494.49 89.52C492.677 89.0933 490.863 88.3467 489.05 87.28C487.29 86.2667 485.45 84.9067 483.53 83.2C481.61 81.5467 479.503 79.4933 477.21 77.04L488.25 74.16C489.743 76.1333 491.157 77.7067 492.49 78.88C493.877 80.1067 495.21 80.9867 496.49 81.52C497.77 82.0533 499.103 82.32 500.49 82.32C504.17 82.32 507.37 80.8267 510.09 77.84L514.89 83.6C511.157 88.0267 506.277 90.24 500.25 90.24ZM481.93 69.68C484.757 69.68 487.37 69.2 489.77 68.24C492.17 67.28 494.25 65.92 496.01 64.16C497.77 62.3467 499.13 60.24 500.09 57.84C501.103 55.44 501.61 52.8267 501.61 50C501.61 47.12 501.103 44.5067 500.09 42.16C499.13 39.76 497.77 37.68 496.01 35.92C494.25 34.1067 492.17 32.72 489.77 31.76C487.37 30.8 484.757 30.32 481.93 30.32C479.103 30.32 476.49 30.8 474.09 31.76C471.69 32.72 469.61 34.1067 467.85 35.92C466.09 37.68 464.703 39.76 463.69 42.16C462.73 44.5067 462.25 47.12 462.25 50C462.25 52.8267 462.73 55.44 463.69 57.84C464.703 60.24 466.09 62.3467 467.85 64.16C469.61 65.92 471.69 67.28 474.09 68.24C476.49 69.2 479.103 69.68 481.93 69.68ZM547.194 78.8C539.514 78.8 533.487 76.64 529.114 72.32C524.794 68 522.634 61.76 522.634 53.6V22H533.034V53.2C533.034 58.96 534.26 63.1467 536.714 65.76C539.22 68.3733 542.74 69.68 547.274 69.68C551.807 69.68 555.3 68.3733 557.754 65.76C560.207 63.1467 561.434 58.96 561.434 53.2V22H571.674V53.6C571.674 61.76 569.487 68 565.114 72.32C560.794 76.64 554.82 78.8 547.194 78.8ZM595.839 45.28H623.679V53.84H595.839V45.28ZM596.639 69.28H628.239V78H586.239V22H627.119V30.72H596.639V69.28Z" fill="white"/>
<path d="M65.4331 9.58263C71.3233 10.9508 74.9648 15.1897 75.6473 21.0174C75.9338 23.4628 75.8981 25.8257 75.2521 28.1746C74.031 32.6143 71.1964 35.5732 66.8748 37.1273C66.544 37.2462 66.2206 37.3855 65.4996 37.6719C72.4815 39.2492 77.3764 42.7512 79.2129 49.591C78.7234 50.0958 78.2372 49.9808 77.794 49.984C75.584 49.9998 73.3718 49.94 71.1645 50.0199C70.0892 50.0588 69.6439 49.6204 69.2996 48.6556C67.0466 42.3414 62.0282 38.7153 55.273 38.5663C50.8033 38.4676 46.3298 38.5426 41.8599 38.4498C40.4246 38.42 39.9772 38.9526 40.0202 40.3367C40.1016 42.9555 39.9857 45.5806 40.0728 48.1991C40.1205 49.6326 39.5893 50.0922 38.1893 50.022C36.1897 49.9218 34.1774 49.9169 32.1783 50.021C30.7543 50.0952 30.3303 49.5918 30.3367 48.1843C30.3842 37.7507 30.3618 27.3167 30.3593 16.8829C30.3591 16.0092 30.3981 15.131 30.3256 14.2627C30.0875 11.4105 28.9792 10.3944 26.1186 10.1837C25.3942 10.1304 24.0841 10.6523 24.0951 9.52665C24.1074 8.26787 25.4664 8.81225 26.2217 8.80932C36.9123 8.76791 47.6032 8.77472 58.294 8.7742C60.6603 8.77409 63.0033 9.00356 65.4331 9.58263ZM48.5044 37.1296C50.9672 37.1354 53.4219 37.0931 55.882 36.8497C60.6322 36.3797 64.1882 33.448 65.5728 28.8476C66.3785 26.1707 66.2684 23.4554 66.1005 20.7545C65.7348 14.8764 62.2941 11.2147 56.5492 10.4785C51.4381 9.8236 46.2979 10.3424 41.1732 10.1982C40.2629 10.1725 40.0484 10.691 40.0488 11.4688C40.0526 19.5816 40.0572 27.6945 40.0339 35.8073C40.031 36.8163 40.4421 37.1585 41.4186 37.1405C43.6771 37.099 45.9369 37.1288 48.5044 37.1296Z" fill="white"/>
<path d="M74.2659 61.809C76.1545 61.8094 77.8896 61.8094 79.8247 61.8094C79.4455 65.722 78.0694 68.9483 75.5378 71.6301C72.6244 74.7163 68.8317 76.0753 64.7612 76.8005C62.1269 77.2697 59.4707 77.3845 56.7965 77.3762C46.6746 77.3445 36.5527 77.3568 26.4307 77.3521C26.0197 77.3519 25.6068 77.3691 25.1982 77.336C24.7028 77.2959 24.0385 77.3623 24.0319 76.6471C24.0249 75.8842 24.7156 76.0557 25.1944 76.0026C25.4488 75.9744 25.7091 75.9993 25.9639 75.9725C29.3251 75.6195 30.33 74.5153 30.3536 71.1071C30.3717 68.4868 30.3935 65.8658 30.3487 63.2462C30.3306 62.1824 30.7297 61.7775 31.7908 61.799C34.0506 61.8449 36.313 61.8531 38.5722 61.7961C39.7444 61.7664 40.0812 62.2863 40.0701 63.3706C40.0326 67.0182 40.0897 70.6671 40.0283 74.314C40.0075 75.549 40.3518 76.0726 41.6758 76.0214C46.5978 75.831 51.5328 76.3081 56.4498 75.7364C63.7451 74.8883 68.1934 71.083 69.8311 63.9425C70.2486 62.1221 71.0242 61.5442 72.7266 61.7979C73.1791 61.8653 73.65 61.8085 74.2659 61.809Z" fill="white"/>
<path d="M65.338 55.5147C65.6666 55.3758 65.9806 55.1771 66.1347 55.4307C66.5293 56.0801 65.6774 56.2894 65.4656 56.8124C66.886 56.6438 67.8543 55.4603 69.2556 55.5102C69.4556 56.5588 68.291 56.5392 68.0405 57.4211C70.4128 57.329 72.5918 56.7343 74.7093 55.8998C75.5241 55.5787 76.3221 55.226 77.1886 55.0864C77.6498 55.012 78.1955 54.98 78.3488 55.5532C78.5273 56.2207 77.9534 56.3925 77.4837 56.6147C76.6669 57.0011 75.6483 56.3842 74.675 57.2552C76.1439 57.623 77.3422 57.1548 78.5508 57.0152C79.7309 56.8789 80.8229 56.1319 82.0636 56.3852C82.1255 56.916 81.8285 57.025 81.5296 57.1221C79.5731 57.7575 77.6008 58.3196 75.5197 58.3299C75.162 58.3316 74.683 58.4256 74.4659 58.2384C73.084 57.0464 71.6532 57.84 70.2507 58.072C68.9335 58.29 67.6363 58.6386 66.3643 57.8934C65.9607 57.6569 65.5566 57.9179 65.1796 58.0412C64.4296 58.2866 63.7986 58.3407 62.9939 57.9455C61.8158 57.3669 60.6152 58.1554 59.4317 58.3858C58.797 58.5094 58.2022 58.9562 57.5418 58.5145C57.1923 57.8873 57.8632 57.7534 58.0905 57.3424C57.9311 57.3188 57.7948 57.2629 57.6735 57.2861C55.8143 57.6404 54.028 58.3748 52.0919 58.3317C51.3245 58.3146 50.5617 58.4012 49.919 57.7957C49.3514 57.2608 48.7504 57.738 48.1857 57.887C46.7127 58.2756 45.2438 58.9379 44.1822 57.0713C43.8634 56.5109 43.2001 56.4499 42.5516 56.8587C41.7716 57.3505 40.9518 57.7917 40.1115 58.1714C39.5701 58.416 38.9586 58.7079 38.3899 58.1576C38.3172 58.0873 38.1817 57.9671 38.1479 57.988C36.2161 59.1754 34.738 57.147 32.9474 57.2507C32.2851 57.2891 31.7973 57.6524 31.2158 57.8249C30.1124 58.1522 29.0867 58.7885 27.8855 57.8699C27.303 57.4245 26.527 58.1089 25.8286 58.1719C24.752 58.2691 23.3965 59.1057 23.0452 57.3164C19.9747 57.5412 17.4152 58.7019 14.8991 60.3246C11.8655 62.281 8.48758 63.6066 4.69954 62.9535C4.1461 62.8581 3.58915 62.7262 3.06509 62.5283C1.73102 62.0247 0.718562 61.1698 0.621201 59.6522C0.525709 58.1636 1.24358 56.8298 2.59795 56.4817C5.19706 55.8137 6.49893 53.784 8.06209 51.9909C11.637 47.89 15.226 43.8037 19.5063 39.8688C15.1082 40.7098 11.0775 41.5311 7.39827 43.5563C6.37239 44.1209 5.73982 44.908 5.8762 46.2751C4.75807 45.8321 4.93131 45.1086 5.17291 44.4606C5.45212 43.7117 6.07074 43.2236 6.76135 42.8426C11.158 40.4167 16.0296 39.606 20.8734 38.7051C21.0639 38.6697 21.2799 38.7354 21.4763 38.7848C21.559 38.8055 21.6215 38.9063 21.8911 39.1484C20.2486 40.6666 18.4391 41.9759 17.0524 43.7159C18.7878 42.3592 20.6422 41.1963 22.5846 40.1943C23.7494 39.5934 25.0433 38.8194 26.2627 40.0525C27.0783 40.8773 26.5964 42.7696 25.2554 44.0312C24.438 44.8003 23.4902 45.4307 22.4899 46.2099C23.43 46.85 24.6208 47.2973 24.7174 48.65C24.8299 50.225 24.1162 51.5419 23.3564 52.8308C22.5453 54.2069 21.4892 55.3958 20.3234 56.5491C22.4799 56.6979 23.5298 56.1693 24.2781 54.5281C25.1054 54.7883 25.9464 55.0528 26.8688 55.3428C26.7287 56.4858 25.3799 56.3886 24.9809 57.3571C26.7627 57.1262 28.3993 56.6491 29.9418 55.8941C31.1776 55.2892 32.2177 54.9767 33.401 56.1733C34.2986 57.0811 35.4155 56.4544 36.3559 55.8702C36.7645 55.6163 37.0036 55.0347 37.7608 55.2472C37.8474 56.1055 36.997 56.4835 36.7051 57.2109C37.8363 57.273 38.4685 56.088 39.4648 56.0933C39.9825 56.4093 39.5941 56.8812 39.7589 57.3625C41.1865 56.5763 42.5188 55.8426 43.9543 55.052C44.6662 56.7522 45.4437 56.2208 46.4185 55.3737C48.2371 53.7934 50.0307 52.1606 52.1776 51.0089C52.6624 50.7488 53.2685 50.2947 53.7167 50.8293C54.2572 51.4739 53.5676 51.9597 53.1742 52.3777C51.5553 54.098 49.3799 54.9812 47.3928 56.1475C46.9278 56.4205 46.2965 56.5096 46.1335 57.4608C47.8616 57.1397 49.4233 56.6417 50.9209 55.9592C51.7231 55.5935 52.5405 55.3089 53.3925 55.1184C53.912 55.0022 54.5443 54.9743 54.6941 55.5882C54.8737 56.324 54.1853 56.4699 53.6531 56.6604C52.8549 56.9461 51.9154 56.439 51.1637 57.0193C51.2716 57.6565 51.7235 57.513 52.0222 57.4732C54.3606 57.1624 56.698 56.8763 58.7824 55.5923C60.433 54.5756 61.2685 54.5894 62.2353 55.5171C61.3795 56.1117 60.1095 55.4497 59.46 56.4379C60.4448 57.4446 62.715 57.1036 65.338 55.5147ZM22.6811 52.113C22.8916 51.7024 23.1339 51.3046 23.3061 50.8785C23.6672 49.985 24.2067 49.0718 23.4873 48.1245C22.7486 47.1518 21.7418 47.3526 20.6856 47.447C19.7479 47.5308 18.9221 48.3088 17.897 47.926C17.9389 47.1059 18.622 47.0864 19.0882 46.8639C20.7598 46.0662 22.3584 45.1497 23.8539 44.0569C24.5669 43.5359 25.1794 42.9256 25.5308 42.0917C25.7159 41.6525 25.8675 41.1912 25.5611 40.7745C25.198 40.2807 24.6379 40.3431 24.1501 40.5031C23.0222 40.8731 21.9892 41.46 21.0239 42.1383C16.5131 45.3078 12.4552 48.9886 8.82273 53.1313C8.31176 53.7141 7.60174 54.1913 7.34018 55.0928C8.965 55.5254 10.4695 56.0608 12.0201 56.3154C18.65 57.404 18.3572 57.8371 22.6811 52.113ZM11.3194 61.1268C13.1697 60.3952 14.8903 59.4375 16.599 58.2253C15.5786 57.4846 14.5006 57.744 13.5275 57.5832C11.4061 57.2327 9.38112 56.4342 7.20961 56.3115C6.3494 56.263 5.70666 56.4458 5.2499 57.1903C4.61088 58.232 3.93785 58.5168 3.28199 57.1051C2.30746 57.7856 1.47578 58.4083 1.59802 59.61C1.71748 60.7843 2.56717 61.3547 3.59304 61.7084C6.16216 62.5944 8.64262 62.1228 11.3194 61.1268Z" fill="white"/>
</svg>
