<svg width="37" height="37" viewBox="0 0 37 37" fill="none" xmlns="http://www.w3.org/2000/svg">
<circle cx="18.5" cy="13.875" r="6.16667" fill="#313131"/>
<circle cx="26.2083" cy="13.875" r="4.625" fill="#313131"/>
<circle cx="10.7917" cy="13.875" r="4.625" fill="#313131"/>
<path fill-rule="evenodd" clip-rule="evenodd" d="M27.0847 27.75H31.2701C31.8617 27.75 32.3159 27.2425 32.1953 26.6633C31.753 24.539 30.33 20.0416 26.2084 20.0416C24.8424 20.0416 23.7727 20.5357 22.937 21.2736C25.2614 22.7817 26.4633 25.4224 27.0847 27.75Z" fill="#313131"/>
<path fill-rule="evenodd" clip-rule="evenodd" d="M14.0631 21.2736C13.2273 20.5357 12.1577 20.0416 10.7917 20.0416C6.67014 20.0416 5.24703 24.539 4.80473 26.6632C4.68413 27.2424 5.13835 27.75 5.72997 27.75H9.91531C10.5367 25.4224 11.7386 22.7817 14.0631 21.2736Z" fill="#313131"/>
<path d="M18.5 21.5834C24.6396 21.5834 25.8891 27.4514 26.1434 29.8399C26.2018 30.3891 25.7606 30.8334 25.2084 30.8334H11.7917C11.2394 30.8334 10.7982 30.3891 10.8567 29.8399C11.111 27.4514 12.3605 21.5834 18.5 21.5834Z" fill="#313131"/>
</svg>
