<svg width="39" height="38" viewBox="0 0 39 38" fill="none" xmlns="http://www.w3.org/2000/svg">
<path fill-rule="evenodd" clip-rule="evenodd" d="M4.12868 5.62868C3.25 6.50736 3.25 7.92157 3.25 10.75V27.25C3.25 30.0784 3.25 31.4926 4.12868 32.3713C5.00736 33.25 6.42157 33.25 9.25 33.25H29.75C32.5784 33.25 33.9926 33.25 34.8713 32.3713C35.75 31.4926 35.75 30.0784 35.75 27.25V10.75C35.75 7.92157 35.75 6.50736 34.8713 5.62868C33.9926 4.75 32.5784 4.75 29.75 4.75H9.25C6.42157 4.75 5.00736 4.75 4.12868 5.62868ZM26 13.25C26.5523 13.25 27 13.6977 27 14.25V26.9167C27 27.469 26.5523 27.9167 26 27.9167C25.4477 27.9167 25 27.469 25 26.9167V14.25C25 13.6977 25.4477 13.25 26 13.25ZM14 17.4167C14 16.8644 13.5523 16.4167 13 16.4167C12.4477 16.4167 12 16.8644 12 17.4167V26.9167C12 27.469 12.4477 27.9167 13 27.9167C13.5523 27.9167 14 27.469 14 26.9167V17.4167ZM20.5 20.5833C20.5 20.031 20.0523 19.5833 19.5 19.5833C18.9477 19.5833 18.5 20.031 18.5 20.5833V26.9167C18.5 27.469 18.9477 27.9167 19.5 27.9167C20.0523 27.9167 20.5 27.469 20.5 26.9167V20.5833Z" fill="#313131"/>
</svg>
