<svg width="134" height="134" viewBox="0 0 134 134" fill="none" xmlns="http://www.w3.org/2000/svg">
<path d="M55.8335 83.75L55.8335 67" stroke="#33363F" stroke-width="8" stroke-linecap="round"/>
<path d="M78.1665 83.75L78.1665 67" stroke="#33363F" stroke-width="8" stroke-linecap="round"/>
<path d="M16.75 39.0834H117.25H104.5C102.614 39.0834 101.672 39.0834 101.086 39.6692C100.5 40.2549 100.5 41.1978 100.5 43.0834V107.667C100.5 109.552 100.5 110.495 99.9142 111.081C99.3284 111.667 98.3856 111.667 96.5 111.667H37.5C35.6144 111.667 34.6716 111.667 34.0858 111.081C33.5 110.495 33.5 109.552 33.5 107.667V43.0834C33.5 41.1978 33.5 40.2549 32.9142 39.6692C32.3284 39.0834 31.3856 39.0834 29.5 39.0834H16.75Z" stroke="#33363F" stroke-width="8" stroke-linecap="round"/>
<path d="M56.2137 18.8191C56.8499 18.2255 58.2518 17.701 60.202 17.3269C62.1522 16.9528 64.5417 16.75 66.9998 16.75C69.458 16.75 71.8475 16.9528 73.7977 17.3269C75.7479 17.701 77.1498 18.2255 77.786 18.8191" stroke="#33363F" stroke-width="8" stroke-linecap="round"/>
</svg>
