<svg width="240" height="24" viewBox="0 0 240 24" fill="none" xmlns="http://www.w3.org/2000/svg">
<path d="M54.5 4.96C55.98 4.96 57.2733 5.25333 58.38 5.84C59.4867 6.42667 60.34 7.25333 60.94 8.32C61.5533 9.37333 61.86 10.5933 61.86 11.98C61.86 13.3533 61.5533 14.5733 60.94 15.64C60.34 16.7067 59.48 17.5333 58.36 18.12C57.2533 18.7067 55.9667 19 54.5 19H49.24V4.96H54.5ZM54.28 16.04C55.5733 16.04 56.58 15.6867 57.3 14.98C58.02 14.2733 58.38 13.2733 58.38 11.98C58.38 10.6867 58.02 9.68 57.3 8.96C56.58 8.24 55.5733 7.88 54.28 7.88H52.66V16.04H54.28ZM68.8513 19.16C67.7579 19.16 66.7713 18.9267 65.8913 18.46C65.0246 17.9933 64.3379 17.3267 63.8313 16.46C63.3379 15.5933 63.0913 14.58 63.0913 13.42C63.0913 12.2733 63.3446 11.2667 63.8512 10.4C64.3579 9.52 65.0513 8.84667 65.9313 8.38C66.8113 7.91333 67.7979 7.68 68.8913 7.68C69.9846 7.68 70.9713 7.91333 71.8513 8.38C72.7313 8.84667 73.4246 9.52 73.9313 10.4C74.4379 11.2667 74.6913 12.2733 74.6913 13.42C74.6913 14.5667 74.4313 15.58 73.9113 16.46C73.4046 17.3267 72.7046 17.9933 71.8113 18.46C70.9313 18.9267 69.9446 19.16 68.8513 19.16ZM68.8513 16.2C69.5046 16.2 70.0579 15.96 70.5113 15.48C70.9779 15 71.2113 14.3133 71.2113 13.42C71.2113 12.5267 70.9846 11.84 70.5313 11.36C70.0913 10.88 69.5446 10.64 68.8913 10.64C68.2246 10.64 67.6713 10.88 67.2313 11.36C66.7913 11.8267 66.5713 12.5133 66.5713 13.42C66.5713 14.3133 66.7846 15 67.2113 15.48C67.6513 15.96 68.1979 16.2 68.8513 16.2ZM92.5256 7.84L89.5056 19H85.7256L83.9656 11.76L82.1456 19H78.3856L75.3456 7.84H78.7656L80.3456 15.82L82.2256 7.84H85.8456L87.7456 15.78L89.3056 7.84H92.5256ZM100.63 7.72C101.937 7.72 102.977 8.14667 103.75 9C104.537 9.84 104.93 11 104.93 12.48V19H101.53V12.94C101.53 12.1933 101.337 11.6133 100.95 11.2C100.563 10.7867 100.043 10.58 99.3898 10.58C98.7365 10.58 98.2165 10.7867 97.8298 11.2C97.4432 11.6133 97.2498 12.1933 97.2498 12.94V19H93.8298V7.84H97.2498V9.32C97.5965 8.82667 98.0632 8.44 98.6498 8.16C99.2365 7.86667 99.8965 7.72 100.63 7.72ZM110.726 4.2V19H107.306V4.2H110.726ZM118.285 19.16C117.192 19.16 116.205 18.9267 115.325 18.46C114.458 17.9933 113.772 17.3267 113.265 16.46C112.772 15.5933 112.525 14.58 112.525 13.42C112.525 12.2733 112.778 11.2667 113.285 10.4C113.792 9.52 114.485 8.84667 115.365 8.38C116.245 7.91333 117.232 7.68 118.325 7.68C119.418 7.68 120.405 7.91333 121.285 8.38C122.165 8.84667 122.858 9.52 123.365 10.4C123.872 11.2667 124.125 12.2733 124.125 13.42C124.125 14.5667 123.865 15.58 123.345 16.46C122.838 17.3267 122.138 17.9933 121.245 18.46C120.365 18.9267 119.378 19.16 118.285 19.16ZM118.285 16.2C118.938 16.2 119.492 15.96 119.945 15.48C120.412 15 120.645 14.3133 120.645 13.42C120.645 12.5267 120.418 11.84 119.965 11.36C119.525 10.88 118.978 10.64 118.325 10.64C117.658 10.64 117.105 10.88 116.665 11.36C116.225 11.8267 116.005 12.5133 116.005 13.42C116.005 14.3133 116.218 15 116.645 15.48C117.085 15.96 117.632 16.2 118.285 16.2ZM125.259 13.4C125.259 12.2533 125.473 11.2467 125.899 10.38C126.339 9.51333 126.933 8.84667 127.679 8.38C128.426 7.91333 129.259 7.68 130.179 7.68C130.966 7.68 131.653 7.84 132.239 8.16C132.839 8.48 133.299 8.9 133.619 9.42V7.84H137.039V19H133.619V17.42C133.286 17.94 132.819 18.36 132.219 18.68C131.633 19 130.946 19.16 130.159 19.16C129.253 19.16 128.426 18.9267 127.679 18.46C126.933 17.98 126.339 17.3067 125.899 16.44C125.473 15.56 125.259 14.5467 125.259 13.4ZM133.619 13.42C133.619 12.5667 133.379 11.8933 132.899 11.4C132.433 10.9067 131.859 10.66 131.179 10.66C130.499 10.66 129.919 10.9067 129.439 11.4C128.973 11.88 128.739 12.5467 128.739 13.4C128.739 14.2533 128.973 14.9333 129.439 15.44C129.919 15.9333 130.499 16.18 131.179 16.18C131.859 16.18 132.433 15.9333 132.899 15.44C133.379 14.9467 133.619 14.2733 133.619 13.42ZM138.833 13.4C138.833 12.2533 139.047 11.2467 139.473 10.38C139.913 9.51333 140.507 8.84667 141.253 8.38C142 7.91333 142.833 7.68 143.753 7.68C144.487 7.68 145.153 7.83333 145.753 8.14C146.367 8.44667 146.847 8.86 147.193 9.38V4.2H150.613V19H147.193V17.4C146.873 17.9333 146.413 18.36 145.813 18.68C145.227 19 144.54 19.16 143.753 19.16C142.833 19.16 142 18.9267 141.253 18.46C140.507 17.98 139.913 17.3067 139.473 16.44C139.047 15.56 138.833 14.5467 138.833 13.4ZM147.193 13.42C147.193 12.5667 146.953 11.8933 146.473 11.4C146.007 10.9067 145.433 10.66 144.753 10.66C144.073 10.66 143.493 10.9067 143.013 11.4C142.547 11.88 142.313 12.5467 142.313 13.4C142.313 14.2533 142.547 14.9333 143.013 15.44C143.493 15.9333 144.073 16.18 144.753 16.18C145.433 16.18 146.007 15.9333 146.473 15.44C146.953 14.9467 147.193 14.2733 147.193 13.42ZM167.326 21.4L165.526 18.98C164.993 19.0867 164.473 19.14 163.966 19.14C162.646 19.14 161.433 18.8333 160.326 18.22C159.233 17.6067 158.359 16.7533 157.706 15.66C157.066 14.5533 156.746 13.3133 156.746 11.94C156.746 10.5667 157.066 9.33333 157.706 8.24C158.359 7.14667 159.233 6.29333 160.326 5.68C161.433 5.06667 162.646 4.76 163.966 4.76C165.286 4.76 166.493 5.06667 167.586 5.68C168.693 6.29333 169.559 7.14667 170.186 8.24C170.826 9.33333 171.146 10.5667 171.146 11.94C171.146 13.14 170.899 14.24 170.406 15.24C169.926 16.2267 169.253 17.0467 168.386 17.7L171.466 21.4H167.326ZM160.246 11.94C160.246 13.18 160.579 14.1733 161.246 14.92C161.926 15.6533 162.833 16.02 163.966 16.02C165.086 16.02 165.979 15.6467 166.646 14.9C167.326 14.1533 167.666 13.1667 167.666 11.94C167.666 10.7 167.326 9.71333 166.646 8.98C165.979 8.23333 165.086 7.86 163.966 7.86C162.833 7.86 161.926 8.22667 161.246 8.96C160.579 9.69333 160.246 10.6867 160.246 11.94ZM180.248 19L177.328 13.7H176.508V19H173.088V4.96H178.828C179.934 4.96 180.874 5.15333 181.648 5.54C182.434 5.92667 183.021 6.46 183.408 7.14C183.794 7.80667 183.988 8.55333 183.988 9.38C183.988 10.3133 183.721 11.1467 183.188 11.88C182.668 12.6133 181.894 13.1333 180.868 13.44L184.108 19H180.248ZM176.508 11.28H178.628C179.254 11.28 179.721 11.1267 180.028 10.82C180.348 10.5133 180.508 10.08 180.508 9.52C180.508 8.98667 180.348 8.56667 180.028 8.26C179.721 7.95333 179.254 7.8 178.628 7.8H176.508V11.28ZM189.693 13.42C189.693 12.26 189.926 11.2467 190.393 10.38C190.873 9.51333 191.533 8.84667 192.373 8.38C193.226 7.91333 194.199 7.68 195.293 7.68C196.693 7.68 197.859 8.04667 198.793 8.78C199.739 9.51333 200.359 10.5467 200.653 11.88H197.013C196.706 11.0267 196.113 10.6 195.233 10.6C194.606 10.6 194.106 10.8467 193.733 11.34C193.359 11.82 193.173 12.5133 193.173 13.42C193.173 14.3267 193.359 15.0267 193.733 15.52C194.106 16 194.606 16.24 195.233 16.24C196.113 16.24 196.706 15.8133 197.013 14.96H200.653C200.359 16.2667 199.739 17.2933 198.793 18.04C197.846 18.7867 196.679 19.16 195.293 19.16C194.199 19.16 193.226 18.9267 192.373 18.46C191.533 17.9933 190.873 17.3267 190.393 16.46C189.926 15.5933 189.693 14.58 189.693 13.42ZM207.562 19.16C206.469 19.16 205.482 18.9267 204.602 18.46C203.736 17.9933 203.049 17.3267 202.542 16.46C202.049 15.5933 201.802 14.58 201.802 13.42C201.802 12.2733 202.056 11.2667 202.562 10.4C203.069 9.52 203.762 8.84667 204.642 8.38C205.522 7.91333 206.509 7.68 207.602 7.68C208.696 7.68 209.682 7.91333 210.562 8.38C211.442 8.84667 212.136 9.52 212.642 10.4C213.149 11.2667 213.402 12.2733 213.402 13.42C213.402 14.5667 213.142 15.58 212.622 16.46C212.116 17.3267 211.416 17.9933 210.522 18.46C209.642 18.9267 208.656 19.16 207.562 19.16ZM207.562 16.2C208.216 16.2 208.769 15.96 209.222 15.48C209.689 15 209.922 14.3133 209.922 13.42C209.922 12.5267 209.696 11.84 209.242 11.36C208.802 10.88 208.256 10.64 207.602 10.64C206.936 10.64 206.382 10.88 205.942 11.36C205.502 11.8267 205.282 12.5133 205.282 13.42C205.282 14.3133 205.496 15 205.922 15.48C206.362 15.96 206.909 16.2 207.562 16.2ZM214.537 13.4C214.537 12.2533 214.75 11.2467 215.177 10.38C215.617 9.51333 216.21 8.84667 216.957 8.38C217.703 7.91333 218.537 7.68 219.457 7.68C220.19 7.68 220.857 7.83333 221.457 8.14C222.07 8.44667 222.55 8.86 222.897 9.38V4.2H226.317V19H222.897V17.4C222.577 17.9333 222.117 18.36 221.517 18.68C220.93 19 220.243 19.16 219.457 19.16C218.537 19.16 217.703 18.9267 216.957 18.46C216.21 17.98 215.617 17.3067 215.177 16.44C214.75 15.56 214.537 14.5467 214.537 13.4ZM222.897 13.42C222.897 12.5667 222.657 11.8933 222.177 11.4C221.71 10.9067 221.137 10.66 220.457 10.66C219.777 10.66 219.197 10.9067 218.717 11.4C218.25 11.88 218.017 12.5467 218.017 13.4C218.017 14.2533 218.25 14.9333 218.717 15.44C219.197 15.9333 219.777 16.18 220.457 16.18C221.137 16.18 221.71 15.9333 222.177 15.44C222.657 14.9467 222.897 14.2733 222.897 13.42ZM239.311 13.24C239.311 13.56 239.291 13.8933 239.251 14.24H231.511C231.564 14.9333 231.784 15.4667 232.171 15.84C232.571 16.2 233.057 16.38 233.631 16.38C234.484 16.38 235.077 16.02 235.411 15.3H239.051C238.864 16.0333 238.524 16.6933 238.031 17.28C237.551 17.8667 236.944 18.3267 236.211 18.66C235.477 18.9933 234.657 19.16 233.751 19.16C232.657 19.16 231.684 18.9267 230.831 18.46C229.977 17.9933 229.311 17.3267 228.831 16.46C228.351 15.5933 228.111 14.58 228.111 13.42C228.111 12.26 228.344 11.2467 228.811 10.38C229.291 9.51333 229.957 8.84667 230.811 8.38C231.664 7.91333 232.644 7.68 233.751 7.68C234.831 7.68 235.791 7.90667 236.631 8.36C237.471 8.81333 238.124 9.46 238.591 10.3C239.071 11.14 239.311 12.12 239.311 13.24ZM235.811 12.34C235.811 11.7533 235.611 11.2867 235.211 10.94C234.811 10.5933 234.311 10.42 233.711 10.42C233.137 10.42 232.651 10.5867 232.251 10.92C231.864 11.2533 231.624 11.7267 231.531 12.34H235.811Z" fill="black"/>
<path d="M12 16L11.2929 16.7071L12 17.4142L12.7071 16.7071L12 16ZM13 4C13 3.44772 12.5523 3 12 3C11.4477 3 11 3.44772 11 4L13 4ZM5.29289 10.7071L11.2929 16.7071L12.7071 15.2929L6.70711 9.29289L5.29289 10.7071ZM12.7071 16.7071L18.7071 10.7071L17.2929 9.29289L11.2929 15.2929L12.7071 16.7071ZM13 16L13 4L11 4L11 16L13 16Z" fill="#33363F"/>
<path d="M5 21L19 21" stroke="#33363F" stroke-width="2"/>
</svg>
