<svg width="26" height="26" viewBox="0 0 26 26" fill="none" xmlns="http://www.w3.org/2000/svg">
<rect x="1" y="10" width="25" height="5" rx="2.5" fill="#313131"/>
<path d="M14 6V12H9C6.79086 12 5 10.2091 5 8V6C5 3.79086 6.79086 2 9 2H10C12.2091 2 14 3.79086 14 6Z" stroke="#313131" stroke-width="2" stroke-linecap="round"/>
<path d="M14 8V12H19C20.6569 12 22 10.6569 22 9V8C22 6.34315 20.6569 5 19 5H17C15.3431 5 14 6.34315 14 8Z" stroke="#313131" stroke-width="2" stroke-linecap="round"/>
<path fill-rule="evenodd" clip-rule="evenodd" d="M4.75 15.7632V24.4C4.75 24.9601 4.75 25.2401 4.85899 25.454C4.95487 25.6422 5.10785 25.7952 5.29601 25.891C5.50992 26 5.78995 26 6.35 26H20.65C21.2101 26 21.4901 26 21.704 25.891C21.8922 25.7952 22.0451 25.6422 22.141 25.454C22.25 25.2401 22.25 24.9601 22.25 24.4V15.7632H15.875V24.7369H14.875V15.7632H4.75ZM4.75024 14.7632H15.375H22.2498C22.2481 14.3365 22.2358 14.1004 22.141 13.9144C22.0451 13.7263 21.8922 13.5733 21.704 13.4774C21.4901 13.3684 21.2101 13.3684 20.65 13.3684H6.35C5.78995 13.3684 5.50992 13.3684 5.29601 13.4774C5.10785 13.5733 4.95487 13.7263 4.85899 13.9144C4.76421 14.1004 4.75185 14.3365 4.75024 14.7632Z" fill="#313131"/>
</svg>
