<svg width="32" height="32" viewBox="0 0 32 32" fill="none" xmlns="http://www.w3.org/2000/svg">
<path fill-rule="evenodd" clip-rule="evenodd" d="M7.25247 5.91916C6.66669 6.50495 6.66669 7.44775 6.66669 9.33337V24C6.66669 25.8857 6.66669 26.8285 7.25247 27.4143C7.83826 28 8.78107 28 10.6667 28H21.3334C23.219 28 24.1618 28 24.7476 27.4143C25.3334 26.8285 25.3334 25.8857 25.3334 24V9.33337C25.3334 7.44776 25.3334 6.50495 24.7476 5.91916C24.1618 5.33337 23.219 5.33337 21.3334 5.33337H10.6667C8.78107 5.33337 7.83826 5.33337 7.25247 5.91916ZM12 11C11.4477 11 11 11.4478 11 12C11 12.5523 11.4477 13 12 13H20C20.5523 13 21 12.5523 21 12C21 11.4478 20.5523 11 20 11H12ZM12 16.3334C11.4477 16.3334 11 16.7811 11 17.3334C11 17.8857 11.4477 18.3334 12 18.3334H20C20.5523 18.3334 21 17.8857 21 17.3334C21 16.7811 20.5523 16.3334 20 16.3334H12ZM12 21.6667C11.4477 21.6667 11 22.1144 11 22.6667C11 23.219 11.4477 23.6667 12 23.6667H17.3334C17.8856 23.6667 18.3334 23.219 18.3334 22.6667C18.3334 22.1144 17.8856 21.6667 17.3334 21.6667H12Z" fill="#313131"/>
</svg>
