<svg width="102" height="102" viewBox="0 0 102 102" fill="none" xmlns="http://www.w3.org/2000/svg">
<path d="M38.25 42.5L54.5081 54.6936C54.9266 55.0074 55.5162 54.9457 55.8607 54.5521L85 21.25" stroke="#33363F" stroke-width="8" stroke-linecap="round"/>
<path d="M89.25 51C89.25 58.9921 86.7466 66.7834 82.0914 73.2798C77.4362 79.7761 70.863 84.6511 63.2951 87.2201C55.7271 89.789 47.5446 89.9229 39.8966 87.603C32.2487 85.283 25.5195 80.6257 20.6542 74.2851C15.789 67.9446 13.032 60.2393 12.7705 52.2515C12.509 44.2637 14.7561 36.3946 19.1963 29.7494C23.6365 23.1043 30.0466 18.0168 37.5264 15.2016C45.0063 12.3864 53.1801 11.9848 60.8998 14.0533" stroke="#33363F" stroke-width="8" stroke-linecap="round"/>
</svg>
